<mxfile host="app.diagrams.net" agent="Mozilla/5.0 (Windows NT 10.0; Win64; x64) AppleWebKit/537.36 (KHTML, like Gecko) Chrome/135.0.0.0 Safari/537.36" version="26.2.12">
  <diagram id="C5RBs43oDa-KdzZeNtuy" name="Page-1">
    <mxGraphModel dx="1884" dy="946" grid="1" gridSize="10" guides="1" tooltips="1" connect="1" arrows="1" fold="1" page="1" pageScale="1" pageWidth="827" pageHeight="1169" math="0" shadow="0">
      <root>
        <mxCell id="WIyWlLk6GJQsqaUBKTNV-0" />
        <mxCell id="WIyWlLk6GJQsqaUBKTNV-1" parent="WIyWlLk6GJQsqaUBKTNV-0" />
        <mxCell id="EGrRDoRwNiexVX2toOEA-0" value="inicio" style="ellipse;whiteSpace=wrap;html=1;" vertex="1" parent="WIyWlLk6GJQsqaUBKTNV-1">
          <mxGeometry x="384" y="10" width="60" height="40" as="geometry" />
        </mxCell>
        <mxCell id="EGrRDoRwNiexVX2toOEA-1" value="" style="endArrow=classic;html=1;rounded=0;exitX=0.5;exitY=1;exitDx=0;exitDy=0;" edge="1" parent="WIyWlLk6GJQsqaUBKTNV-1" source="EGrRDoRwNiexVX2toOEA-0">
          <mxGeometry width="50" height="50" relative="1" as="geometry">
            <mxPoint x="380" y="290" as="sourcePoint" />
            <mxPoint x="414" y="100" as="targetPoint" />
          </mxGeometry>
        </mxCell>
        <mxCell id="EGrRDoRwNiexVX2toOEA-4" value="cv=0&lt;div&gt;u=0&lt;/div&gt;&lt;div&gt;c=0&lt;/div&gt;&lt;div&gt;cap=0&lt;/div&gt;&lt;div&gt;num=0&lt;/div&gt;&lt;div&gt;par=0&lt;/div&gt;&lt;div&gt;inpar=0&lt;/div&gt;" style="rounded=0;whiteSpace=wrap;html=1;" vertex="1" parent="WIyWlLk6GJQsqaUBKTNV-1">
          <mxGeometry x="354" y="80" width="120" height="90" as="geometry" />
        </mxCell>
        <mxCell id="EGrRDoRwNiexVX2toOEA-5" value="" style="endArrow=classic;html=1;rounded=0;exitX=0.5;exitY=1;exitDx=0;exitDy=0;" edge="1" parent="WIyWlLk6GJQsqaUBKTNV-1" source="EGrRDoRwNiexVX2toOEA-4">
          <mxGeometry width="50" height="50" relative="1" as="geometry">
            <mxPoint x="434" y="90" as="sourcePoint" />
            <mxPoint x="414" y="190" as="targetPoint" />
          </mxGeometry>
        </mxCell>
        <mxCell id="EGrRDoRwNiexVX2toOEA-7" style="edgeStyle=orthogonalEdgeStyle;rounded=0;orthogonalLoop=1;jettySize=auto;html=1;exitX=0.5;exitY=1;exitDx=0;exitDy=0;" edge="1" parent="WIyWlLk6GJQsqaUBKTNV-1" source="EGrRDoRwNiexVX2toOEA-6">
          <mxGeometry relative="1" as="geometry">
            <mxPoint x="414.16666666666674" y="270" as="targetPoint" />
          </mxGeometry>
        </mxCell>
        <mxCell id="EGrRDoRwNiexVX2toOEA-6" value="&quot;ingrese el numero&quot;" style="shape=parallelogram;perimeter=parallelogramPerimeter;whiteSpace=wrap;html=1;fixedSize=1;" vertex="1" parent="WIyWlLk6GJQsqaUBKTNV-1">
          <mxGeometry x="339" y="190" width="150" height="50" as="geometry" />
        </mxCell>
        <mxCell id="EGrRDoRwNiexVX2toOEA-10" style="edgeStyle=orthogonalEdgeStyle;rounded=0;orthogonalLoop=1;jettySize=auto;html=1;exitX=0.5;exitY=1;exitDx=0;exitDy=0;" edge="1" parent="WIyWlLk6GJQsqaUBKTNV-1" source="EGrRDoRwNiexVX2toOEA-8">
          <mxGeometry relative="1" as="geometry">
            <mxPoint x="414" y="320" as="targetPoint" />
          </mxGeometry>
        </mxCell>
        <mxCell id="EGrRDoRwNiexVX2toOEA-8" value="num" style="rounded=0;whiteSpace=wrap;html=1;" vertex="1" parent="WIyWlLk6GJQsqaUBKTNV-1">
          <mxGeometry x="366" y="270" width="96" height="30" as="geometry" />
        </mxCell>
        <mxCell id="EGrRDoRwNiexVX2toOEA-12" style="edgeStyle=orthogonalEdgeStyle;rounded=0;orthogonalLoop=1;jettySize=auto;html=1;exitX=1;exitY=0.5;exitDx=0;exitDy=0;" edge="1" parent="WIyWlLk6GJQsqaUBKTNV-1" source="EGrRDoRwNiexVX2toOEA-11">
          <mxGeometry relative="1" as="geometry">
            <mxPoint x="560" y="420" as="targetPoint" />
          </mxGeometry>
        </mxCell>
        <mxCell id="EGrRDoRwNiexVX2toOEA-38" style="edgeStyle=orthogonalEdgeStyle;rounded=0;orthogonalLoop=1;jettySize=auto;html=1;exitX=0;exitY=0.5;exitDx=0;exitDy=0;" edge="1" parent="WIyWlLk6GJQsqaUBKTNV-1" source="EGrRDoRwNiexVX2toOEA-11">
          <mxGeometry relative="1" as="geometry">
            <mxPoint x="260" y="430" as="targetPoint" />
          </mxGeometry>
        </mxCell>
        <mxCell id="EGrRDoRwNiexVX2toOEA-11" value="cv&amp;lt;100" style="rhombus;whiteSpace=wrap;html=1;" vertex="1" parent="WIyWlLk6GJQsqaUBKTNV-1">
          <mxGeometry x="331" y="320" width="166" height="80" as="geometry" />
        </mxCell>
        <mxCell id="EGrRDoRwNiexVX2toOEA-14" style="edgeStyle=orthogonalEdgeStyle;rounded=0;orthogonalLoop=1;jettySize=auto;html=1;exitX=0.5;exitY=1;exitDx=0;exitDy=0;" edge="1" parent="WIyWlLk6GJQsqaUBKTNV-1" source="EGrRDoRwNiexVX2toOEA-13">
          <mxGeometry relative="1" as="geometry">
            <mxPoint x="560" y="470" as="targetPoint" />
          </mxGeometry>
        </mxCell>
        <mxCell id="EGrRDoRwNiexVX2toOEA-13" value="u=mod num/10" style="rounded=0;whiteSpace=wrap;html=1;" vertex="1" parent="WIyWlLk6GJQsqaUBKTNV-1">
          <mxGeometry x="500" y="420" width="117" height="30" as="geometry" />
        </mxCell>
        <mxCell id="EGrRDoRwNiexVX2toOEA-17" style="edgeStyle=orthogonalEdgeStyle;rounded=0;orthogonalLoop=1;jettySize=auto;html=1;exitX=0.5;exitY=1;exitDx=0;exitDy=0;entryX=0.5;entryY=0;entryDx=0;entryDy=0;" edge="1" parent="WIyWlLk6GJQsqaUBKTNV-1" source="EGrRDoRwNiexVX2toOEA-15" target="EGrRDoRwNiexVX2toOEA-16">
          <mxGeometry relative="1" as="geometry" />
        </mxCell>
        <mxCell id="EGrRDoRwNiexVX2toOEA-15" value="c=trunc num/100" style="rounded=0;whiteSpace=wrap;html=1;" vertex="1" parent="WIyWlLk6GJQsqaUBKTNV-1">
          <mxGeometry x="500" y="470" width="117" height="30" as="geometry" />
        </mxCell>
        <mxCell id="EGrRDoRwNiexVX2toOEA-18" style="edgeStyle=orthogonalEdgeStyle;rounded=0;orthogonalLoop=1;jettySize=auto;html=1;exitX=1;exitY=0.5;exitDx=0;exitDy=0;" edge="1" parent="WIyWlLk6GJQsqaUBKTNV-1" source="EGrRDoRwNiexVX2toOEA-16">
          <mxGeometry relative="1" as="geometry">
            <mxPoint x="680" y="620" as="targetPoint" />
          </mxGeometry>
        </mxCell>
        <mxCell id="EGrRDoRwNiexVX2toOEA-21" style="edgeStyle=orthogonalEdgeStyle;rounded=0;orthogonalLoop=1;jettySize=auto;html=1;exitX=0;exitY=0.5;exitDx=0;exitDy=0;" edge="1" parent="WIyWlLk6GJQsqaUBKTNV-1" source="EGrRDoRwNiexVX2toOEA-16">
          <mxGeometry relative="1" as="geometry">
            <mxPoint x="630" y="690" as="targetPoint" />
            <Array as="points">
              <mxPoint x="469" y="560" />
              <mxPoint x="469" y="690" />
            </Array>
          </mxGeometry>
        </mxCell>
        <mxCell id="EGrRDoRwNiexVX2toOEA-16" value="u=c" style="rhombus;whiteSpace=wrap;html=1;" vertex="1" parent="WIyWlLk6GJQsqaUBKTNV-1">
          <mxGeometry x="489" y="520" width="151.5" height="80" as="geometry" />
        </mxCell>
        <mxCell id="EGrRDoRwNiexVX2toOEA-22" style="edgeStyle=orthogonalEdgeStyle;rounded=0;orthogonalLoop=1;jettySize=auto;html=1;exitX=0.5;exitY=1;exitDx=0;exitDy=0;" edge="1" parent="WIyWlLk6GJQsqaUBKTNV-1" source="EGrRDoRwNiexVX2toOEA-20">
          <mxGeometry relative="1" as="geometry">
            <mxPoint x="620" y="690" as="targetPoint" />
            <Array as="points">
              <mxPoint x="685" y="690" />
            </Array>
          </mxGeometry>
        </mxCell>
        <mxCell id="EGrRDoRwNiexVX2toOEA-20" value="cap=cap+1" style="rounded=0;whiteSpace=wrap;html=1;" vertex="1" parent="WIyWlLk6GJQsqaUBKTNV-1">
          <mxGeometry x="630" y="620" width="110" height="30" as="geometry" />
        </mxCell>
        <mxCell id="EGrRDoRwNiexVX2toOEA-23" value="" style="endArrow=classic;html=1;rounded=0;" edge="1" parent="WIyWlLk6GJQsqaUBKTNV-1">
          <mxGeometry width="50" height="50" relative="1" as="geometry">
            <mxPoint x="580" y="690" as="sourcePoint" />
            <mxPoint x="580" y="720" as="targetPoint" />
          </mxGeometry>
        </mxCell>
        <mxCell id="EGrRDoRwNiexVX2toOEA-25" style="edgeStyle=orthogonalEdgeStyle;rounded=0;orthogonalLoop=1;jettySize=auto;html=1;exitX=1;exitY=0.5;exitDx=0;exitDy=0;" edge="1" parent="WIyWlLk6GJQsqaUBKTNV-1" source="EGrRDoRwNiexVX2toOEA-24">
          <mxGeometry relative="1" as="geometry">
            <mxPoint x="690" y="810" as="targetPoint" />
            <Array as="points">
              <mxPoint x="690" y="760" />
              <mxPoint x="690" y="800" />
            </Array>
          </mxGeometry>
        </mxCell>
        <mxCell id="EGrRDoRwNiexVX2toOEA-27" style="edgeStyle=orthogonalEdgeStyle;rounded=0;orthogonalLoop=1;jettySize=auto;html=1;exitX=0;exitY=0.5;exitDx=0;exitDy=0;" edge="1" parent="WIyWlLk6GJQsqaUBKTNV-1" source="EGrRDoRwNiexVX2toOEA-24">
          <mxGeometry relative="1" as="geometry">
            <mxPoint x="600" y="880" as="targetPoint" />
            <Array as="points">
              <mxPoint x="480" y="760" />
              <mxPoint x="480" y="880" />
            </Array>
          </mxGeometry>
        </mxCell>
        <mxCell id="EGrRDoRwNiexVX2toOEA-24" value="u/2=0" style="rhombus;whiteSpace=wrap;html=1;" vertex="1" parent="WIyWlLk6GJQsqaUBKTNV-1">
          <mxGeometry x="500" y="720" width="155" height="80" as="geometry" />
        </mxCell>
        <mxCell id="EGrRDoRwNiexVX2toOEA-28" style="edgeStyle=orthogonalEdgeStyle;rounded=0;orthogonalLoop=1;jettySize=auto;html=1;exitX=0.5;exitY=1;exitDx=0;exitDy=0;" edge="1" parent="WIyWlLk6GJQsqaUBKTNV-1" source="EGrRDoRwNiexVX2toOEA-26">
          <mxGeometry relative="1" as="geometry">
            <mxPoint x="600" y="880" as="targetPoint" />
            <Array as="points">
              <mxPoint x="690" y="880" />
            </Array>
          </mxGeometry>
        </mxCell>
        <mxCell id="EGrRDoRwNiexVX2toOEA-26" value="par=par+u" style="rounded=0;whiteSpace=wrap;html=1;" vertex="1" parent="WIyWlLk6GJQsqaUBKTNV-1">
          <mxGeometry x="630" y="810" width="120" height="20" as="geometry" />
        </mxCell>
        <mxCell id="EGrRDoRwNiexVX2toOEA-29" value="" style="endArrow=classic;html=1;rounded=0;" edge="1" parent="WIyWlLk6GJQsqaUBKTNV-1">
          <mxGeometry width="50" height="50" relative="1" as="geometry">
            <mxPoint x="600" y="880" as="sourcePoint" />
            <mxPoint x="600" y="900" as="targetPoint" />
          </mxGeometry>
        </mxCell>
        <mxCell id="EGrRDoRwNiexVX2toOEA-31" style="edgeStyle=orthogonalEdgeStyle;rounded=0;orthogonalLoop=1;jettySize=auto;html=1;exitX=1;exitY=0.5;exitDx=0;exitDy=0;" edge="1" parent="WIyWlLk6GJQsqaUBKTNV-1" source="EGrRDoRwNiexVX2toOEA-30">
          <mxGeometry relative="1" as="geometry">
            <mxPoint x="703" y="970" as="targetPoint" />
          </mxGeometry>
        </mxCell>
        <mxCell id="EGrRDoRwNiexVX2toOEA-33" style="edgeStyle=orthogonalEdgeStyle;rounded=0;orthogonalLoop=1;jettySize=auto;html=1;exitX=0;exitY=0.5;exitDx=0;exitDy=0;" edge="1" parent="WIyWlLk6GJQsqaUBKTNV-1" source="EGrRDoRwNiexVX2toOEA-30">
          <mxGeometry relative="1" as="geometry">
            <mxPoint x="600" y="1030" as="targetPoint" />
            <Array as="points">
              <mxPoint x="500" y="940" />
              <mxPoint x="500" y="1030" />
            </Array>
          </mxGeometry>
        </mxCell>
        <mxCell id="EGrRDoRwNiexVX2toOEA-30" value="c/2!=0" style="rhombus;whiteSpace=wrap;html=1;" vertex="1" parent="WIyWlLk6GJQsqaUBKTNV-1">
          <mxGeometry x="520" y="900" width="163" height="80" as="geometry" />
        </mxCell>
        <mxCell id="EGrRDoRwNiexVX2toOEA-34" style="edgeStyle=orthogonalEdgeStyle;rounded=0;orthogonalLoop=1;jettySize=auto;html=1;exitX=0.5;exitY=1;exitDx=0;exitDy=0;" edge="1" parent="WIyWlLk6GJQsqaUBKTNV-1" source="EGrRDoRwNiexVX2toOEA-32">
          <mxGeometry relative="1" as="geometry">
            <mxPoint x="600" y="1030" as="targetPoint" />
            <Array as="points">
              <mxPoint x="700" y="1030" />
            </Array>
          </mxGeometry>
        </mxCell>
        <mxCell id="EGrRDoRwNiexVX2toOEA-32" value="inpar=inpar+1" style="rounded=0;whiteSpace=wrap;html=1;" vertex="1" parent="WIyWlLk6GJQsqaUBKTNV-1">
          <mxGeometry x="650" y="970" width="100" height="20" as="geometry" />
        </mxCell>
        <mxCell id="EGrRDoRwNiexVX2toOEA-35" value="" style="endArrow=classic;html=1;rounded=0;" edge="1" parent="WIyWlLk6GJQsqaUBKTNV-1">
          <mxGeometry width="50" height="50" relative="1" as="geometry">
            <mxPoint x="600" y="1030" as="sourcePoint" />
            <mxPoint x="600" y="1050" as="targetPoint" />
          </mxGeometry>
        </mxCell>
        <mxCell id="EGrRDoRwNiexVX2toOEA-37" style="edgeStyle=orthogonalEdgeStyle;rounded=0;orthogonalLoop=1;jettySize=auto;html=1;exitX=0.5;exitY=1;exitDx=0;exitDy=0;" edge="1" parent="WIyWlLk6GJQsqaUBKTNV-1" source="EGrRDoRwNiexVX2toOEA-36">
          <mxGeometry relative="1" as="geometry">
            <mxPoint x="420" y="179.16666666666666" as="targetPoint" />
            <Array as="points">
              <mxPoint x="602" y="1090" />
              <mxPoint x="800" y="1090" />
              <mxPoint x="800" y="179" />
            </Array>
          </mxGeometry>
        </mxCell>
        <mxCell id="EGrRDoRwNiexVX2toOEA-36" value="cv=cv+1" style="rounded=0;whiteSpace=wrap;html=1;" vertex="1" parent="WIyWlLk6GJQsqaUBKTNV-1">
          <mxGeometry x="542" y="1050" width="120" height="20" as="geometry" />
        </mxCell>
        <mxCell id="EGrRDoRwNiexVX2toOEA-39" value="cap&lt;div&gt;par&lt;/div&gt;&lt;div&gt;inpar&lt;/div&gt;" style="shape=document;whiteSpace=wrap;html=1;boundedLbl=1;" vertex="1" parent="WIyWlLk6GJQsqaUBKTNV-1">
          <mxGeometry x="200" y="430" width="120" height="80" as="geometry" />
        </mxCell>
      </root>
    </mxGraphModel>
  </diagram>
</mxfile>
